<?xml version="1.0" encoding="utf-8"?><!DOCTYPE svg PUBLIC "-//W3C//DTD SVG 1.1//EN" "http://www.w3.org/Graphics/SVG/1.1/DTD/svg11.dtd"><svg xmlns="http://www.w3.org/2000/svg" width="420" height="420" viewBox="0 0 NaN NaN" shape-rendering="crispEdges"><path fill="#ffffff" d="M0 0hNaNvNaNH0z"/><path stroke="#000000" d="MNaN NaNh7m13 0h1m1 0h1m3 0h2m2 0h7MNaN NaNh1m5 0h1m4 0h1m1 0h2m1 0h1m1 0h1m2 0h1m3 0h1m4 0h1m5 0h1MNaN NaNh1m1 0h3m1 0h1m1 0h4m1 0h1m3 0h1m1 0h1m1 0h2m2 0h4m1 0h1m1 0h3m1 0h1MNaN NaNh1m1 0h3m1 0h1m1 0h1m4 0h1m5 0h5m4 0h1m1 0h1m1 0h3m1 0h1MNaN NaNh1m1 0h3m1 0h1m1 0h2m1 0h2m1 0h1m2 0h1m4 0h1m1 0h3m3 0h1m1 0h3m1 0h1MNaN NaNh1m5 0h1m1 0h1m5 0h1m6 0h2m2 0h1m1 0h1m2 0h1m5 0h1MNaN NaNh7m1 0h1m1 0h1m1 0h1m1 0h1m1 0h1m1 0h1m1 0h1m1 0h1m1 0h1m1 0h1m1 0h1m1 0h7MNaN NaNh1m1 0h1m3 0h1m1 0h1m3 0h1m4 0h3MNaN NaNh1m1 0h5m5 0h1m2 0h2m1 0h4m1 0h1m2 0h3m1 0h5MNaN NaNh1m1 0h3m2 0h2m1 0h1m2 0h1m5 0h6m1 0h3MNaN NaNh2m1 0h4m3 0h1m1 0h8m2 0h2m1 0h2m2 0h8MNaN NaNh1m1 0h3m4 0h2m2 0h2m1 0h1m2 0h2m1 0h2m1 0h2m1 0h1m2 0h2m2 0h1MNaN NaNh2m2 0h1m1 0h3m1 0h1m2 0h1m1 0h2m2 0h1m1 0h1m1 0h1m4 0h6m1 0h2MNaN NaNh1m1 0h1m1 0h1m2 0h2m1 0h1m4 0h1m1 0h1m4 0h1m2 0h1m1 0h1m3 0h1MNaN NaNh3m1 0h4m2 0h1m2 0h3m2 0h2m1 0h1m1 0h1m2 0h3m2 0h3m1 0h2MNaN NaNh3m3 0h5m1 0h3m3 0h4m1 0h1m2 0h5MNaN NaNh2m4 0h1m2 0h1m1 0h2m1 0h1m4 0h5m2 0h1m1 0h4m2 0h1MNaN NaNh1m2 0h2m1 0h2m2 0h3m1 0h4m7 0h3m1 0h2m1 0h1m1 0h1MNaN NaNh2m2 0h2m2 0h4m1 0h1m2 0h3m1 0h2m1 0h4m2 0h1m4 0h2MNaN NaNh1m1 0h1m2 0h1m3 0h1m1 0h2m3 0h3m2 0h3m1 0h3m1 0h2m1 0h1m3 0h1MNaN NaNh1m4 0h4m2 0h2m1 0h1m4 0h1m1 0h1m1 0h2m5 0h1m1 0h3MNaN NaNh3m1 0h2m1 0h2m1 0h1m3 0h1m2 0h1m2 0h1m3 0h3m6 0h1m1 0h2MNaN NaNh1m5 0h1m1 0h1m2 0h1m4 0h3m1 0h3m1 0h1m1 0h3m2 0h3m1 0h2MNaN NaNh4m2 0h1m1 0h3m7 0h1m1 0h6m3 0h1MNaN NaNh2m1 0h2m1 0h1m1 0h1m1 0h1m1 0h2m1 0h2m1 0h4m4 0h6m2 0h1m1 0h1MNaN NaNh2m1 0h2m2 0h1m2 0h4m1 0h1m1 0h2m1 0h1m3 0h1m2 0h1m2 0h5MNaN NaNh1m1 0h1m3 0h2m1 0h1m2 0h5m3 0h1m1 0h1m1 0h1m2 0h1m1 0h1m5 0h2MNaN NaNh1m3 0h1m2 0h1m4 0h2m1 0h1m5 0h2m2 0h4m3 0h2MNaN NaNh1m1 0h1m3 0h1m5 0h5m2 0h1m1 0h6m1 0h6m1 0h1MNaN NaNh5m2 0h1m4 0h1m1 0h1m1 0h5m3 0h2m1 0h2MNaN NaNh7m2 0h1m1 0h5m2 0h1m2 0h2m5 0h1m1 0h1m1 0h1m1 0h1m1 0h1MNaN NaNh1m5 0h1m1 0h3m1 0h1m1 0h2m2 0h2m1 0h1m2 0h1m1 0h1m1 0h1m3 0h2MNaN NaNh1m1 0h3m1 0h1m1 0h1m2 0h2m1 0h1m3 0h4m2 0h1m1 0h7m1 0h1m1 0h1MNaN NaNh1m1 0h3m1 0h1m1 0h3m1 0h1m2 0h4m1 0h3m1 0h2m3 0h2m1 0h1m3 0h1MNaN NaNh1m1 0h3m1 0h1m1 0h4m5 0h4m2 0h2m1 0h1m1 0h1m5 0h1m1 0h1MNaN NaNh1m5 0h1m2 0h1m2 0h1m1 0h1m1 0h1m3 0h2m3 0h3m1 0h1m2 0h1m1 0h1m1 0h1MNaN NaNh7m1 0h6m4 0h4m1 0h6m1 0h1m1 0h1m2 0h2"/></svg>
